<svg width="228" height="48" viewBox="0 0 228 48" fill="none" xmlns="http://www.w3.org/2000/svg">
<path d="M46.3118 0C41.6718 0 37.8306 3.45798 37.0857 7.99145C36.3407 3.45698 32.4995 0 27.8595 0C23.2195 0 19.3783 3.45798 18.6333 7.99145C17.8884 3.45698 14.0472 0 9.40717 0C4.23464 0 0.0410156 4.29391 0.0410156 9.59014C0.0410156 14.8864 4.23464 19.1803 9.40717 19.1803C14.0472 19.1803 17.8884 15.7223 18.6333 11.1888C19.3783 15.7233 23.2195 19.1803 27.8595 19.1803C32.4995 19.1803 36.3407 15.7223 37.0857 11.1888C37.8306 15.7233 41.6718 19.1803 46.3118 19.1803C51.4844 19.1803 55.678 14.8864 55.678 9.59014C55.678 4.29391 51.4844 0 46.3118 0Z" fill="#00B140"/>
<path d="M46.3118 28.8203C41.6718 28.8203 37.8306 32.2783 37.0857 36.8118C36.3407 32.2773 32.4995 28.8203 27.8595 28.8203C23.2195 28.8203 19.3783 32.2783 18.6333 36.8118C17.8884 32.2773 14.0472 28.8203 9.40717 28.8203C4.23464 28.8203 0.0410156 33.1142 0.0410156 38.4105C0.0410156 43.7067 4.23464 48.0006 9.40717 48.0006C14.0472 48.0006 17.8884 44.5426 18.6333 40.0091C19.3783 44.5436 23.2195 48.0006 27.8595 48.0006C32.4995 48.0006 36.3407 44.5426 37.0857 40.0091C37.8306 44.5436 41.6718 48.0006 46.3118 48.0006C51.4844 48.0006 55.678 43.7067 55.678 38.4105C55.678 33.1142 51.4844 28.8203 46.3118 28.8203Z" fill="#00B140"/>
<path d="M110.75 10.3203C103.915 10.3203 98.3535 16.0145 98.3535 23.0146C98.3535 30.0148 103.915 35.7089 110.75 35.7089C114.219 35.7089 117.355 34.2385 119.607 31.8801V44.2947H123.148V23.0146C123.148 16.0155 117.586 10.3203 110.75 10.3203ZM110.75 32.0836C105.867 32.0836 101.893 28.0152 101.893 23.0146C101.893 18.0141 105.867 13.9457 110.75 13.9457C115.634 13.9457 119.607 18.0141 119.607 23.0146C119.607 28.0152 115.634 32.0836 110.75 32.0836Z" fill="#00B140"/>
<path d="M165.34 10.3164C158.505 10.3164 152.943 16.0106 152.943 23.0107C152.943 30.0109 158.505 35.705 165.34 35.705C168.808 35.705 171.945 34.2346 174.197 31.8762V35.705H177.738V23.0107C177.738 16.0116 172.176 10.3164 165.34 10.3164ZM165.34 32.0797C160.456 32.0797 156.483 28.0113 156.483 23.0107C156.483 18.0102 160.456 13.9418 165.34 13.9418C170.224 13.9418 174.197 18.0102 174.197 23.0107C174.197 28.0113 170.224 32.0797 165.34 32.0797Z" fill="#00B140"/>
<path d="M83.7005 10.3203C76.8649 10.3203 71.3027 16.0145 71.3027 23.0146C71.3027 30.0148 76.8649 35.7089 83.7005 35.7089C87.0112 35.7089 90.1251 34.3889 92.4666 31.9913L93.7186 30.7094L91.2156 28.1455L89.9636 29.4274C88.2906 31.1404 86.0656 32.0836 83.7005 32.0836C79.4227 32.0836 75.8439 28.9624 75.0206 24.8268H96.0974V23.0146C96.0974 16.0155 90.5362 10.3203 83.7005 10.3203ZM75.0206 21.2014C75.8439 17.0659 79.4227 13.9447 83.7005 13.9447C87.9784 13.9447 91.5572 17.0659 92.3795 21.2014H75.0206Z" fill="#00B140"/>
<path d="M185.644 3.70703H182.104V35.7069H185.644V3.70703Z" fill="#00B140"/>
<path d="M146.874 23.0148C146.874 28.0153 142.901 32.0837 138.017 32.0837C133.133 32.0837 129.16 28.0153 129.16 23.0148V11.3398H125.619V23.0148C125.619 30.014 131.181 35.7091 138.017 35.7091C144.853 35.7091 150.415 30.015 150.415 23.0148V11.3398H146.874V23.0148Z" fill="#00B140"/>
<path d="M207.51 10.8945C200.637 10.8945 195.045 16.4861 195.045 23.3602C195.045 30.2342 200.637 35.8258 207.51 35.8258C210.998 35.8258 214.151 34.3819 216.416 32.0659V35.8258H219.977V23.3602C219.977 16.4871 214.384 10.8945 207.51 10.8945ZM207.51 32.2657C202.6 32.2657 198.604 28.2706 198.604 23.3602C198.604 18.4497 202.6 14.4546 207.51 14.4546C212.421 14.4546 216.416 18.4497 216.416 23.3602C216.416 28.2706 212.421 32.2657 207.51 32.2657Z" fill="#00B140"/>
<path d="M227.419 11.9766H224.182V35.7183H227.419V11.9766Z" fill="#00B140"/>
<path d="M225.793 9.81668C225.191 9.81668 224.682 9.60508 224.266 9.18187C223.85 8.75867 223.643 8.25082 223.643 7.65834C223.643 7.05527 223.85 6.54743 224.266 6.13481C224.682 5.7116 225.191 5.5 225.793 5.5C226.406 5.5 226.92 5.7116 227.336 6.13481C227.752 6.54743 227.959 7.05527 227.959 7.65834C227.959 8.25082 227.752 8.75867 227.336 9.18187C226.92 9.60508 226.406 9.81668 225.793 9.81668Z" fill="#00B140"/>
</svg>
