<svg width="157" height="42" viewBox="0 0 157 42" fill="none" xmlns="http://www.w3.org/2000/svg">
<path d="M39.7504 7.32031C32.9147 7.32031 27.3535 13.0145 27.3535 20.0146C27.3535 27.0148 32.9147 32.7089 39.7504 32.7089C43.2186 32.7089 46.355 31.2385 48.6075 28.8801V41.2947H52.1482V20.0146C52.1482 13.0155 46.586 7.32031 39.7504 7.32031ZM39.7504 29.0836C34.8666 29.0836 30.8932 25.0152 30.8932 20.0146C30.8932 15.0141 34.8666 10.9457 39.7504 10.9457C44.6341 10.9457 48.6075 15.0141 48.6075 20.0146C48.6075 25.0152 44.6341 29.0836 39.7504 29.0836Z" fill="#00B140"/>
<path d="M94.3402 7.31641C87.5045 7.31641 81.9434 13.0106 81.9434 20.0107C81.9434 27.0109 87.5045 32.705 94.3402 32.705C97.8084 32.705 100.945 31.2346 103.197 28.8762V32.705H106.738V20.0107C106.738 13.0116 101.176 7.31641 94.3402 7.31641ZM94.3402 29.0797C89.4564 29.0797 85.4831 25.0113 85.4831 20.0107C85.4831 15.0102 89.4564 10.9418 94.3402 10.9418C99.2239 10.9418 103.197 15.0102 103.197 20.0107C103.197 25.0113 99.2239 29.0797 94.3402 29.0797Z" fill="#00B140"/>
<path d="M12.7005 7.32031C5.86487 7.32031 0.302734 13.0145 0.302734 20.0146C0.302734 27.0148 5.86487 32.7089 12.7005 32.7089C16.0112 32.7089 19.1251 31.3889 21.4666 28.9913L22.7186 27.7094L20.2156 25.1455L18.9636 26.4274C17.2906 28.1404 15.0656 29.0836 12.7005 29.0836C8.42274 29.0836 4.84387 25.9624 4.02061 21.8268H25.0974V20.0146C25.0974 13.0155 19.5362 7.32031 12.7005 7.32031ZM4.02061 18.2014C4.84387 14.0659 8.42274 10.9447 12.7005 10.9447C16.9784 10.9447 20.5572 14.0659 21.3795 18.2014H4.02061Z" fill="#00B140"/>
<path d="M114.644 0.707031H111.104V32.7069H114.644V0.707031Z" fill="#00B140"/>
<path d="M75.8741 20.0148C75.8741 25.0153 71.9007 29.0837 67.017 29.0837C62.1332 29.0837 58.1598 25.0153 58.1598 20.0148V8.33984H54.6191V20.0148C54.6191 27.014 60.1813 32.7091 67.017 32.7091C73.8527 32.7091 79.4148 27.015 79.4148 20.0148V8.33984H75.8741V20.0148Z" fill="#00B140"/>
<path d="M136.51 7.89453C129.637 7.89453 124.045 13.4861 124.045 20.3602C124.045 27.2342 129.637 32.8258 136.51 32.8258C139.998 32.8258 143.151 31.3819 145.416 29.0659V32.8258H148.977V20.3602C148.977 13.4871 143.384 7.89453 136.51 7.89453ZM136.51 29.2657C131.6 29.2657 127.604 25.2706 127.604 20.3602C127.604 15.4497 131.6 11.4546 136.51 11.4546C141.421 11.4546 145.416 15.4497 145.416 20.3602C145.416 25.2706 141.421 29.2657 136.51 29.2657Z" fill="#00B140"/>
<path d="M156.419 8.97656H153.182V32.7183H156.419V8.97656Z" fill="#00B140"/>
<path d="M154.793 6.81668C154.191 6.81668 153.682 6.60508 153.266 6.18187C152.85 5.75867 152.643 5.25082 152.643 4.65834C152.643 4.05527 152.85 3.54743 153.266 3.13481C153.682 2.7116 154.191 2.5 154.793 2.5C155.406 2.5 155.92 2.7116 156.336 3.13481C156.752 3.54743 156.959 4.05527 156.959 4.65834C156.959 5.25082 156.752 5.75867 156.336 6.18187C155.92 6.60508 155.406 6.81668 154.793 6.81668Z" fill="#00B140"/>
</svg>
